<?xml version="1.0" encoding="iso-8859-1"?>
<!-- Generator: Adobe Illustrator 19.0.0, SVG Export Plug-In . SVG Version: 6.00 Build 0)  -->
<svg version="1.1" id="Layer_1" xmlns="http://www.w3.org/2000/svg" xmlns:xlink="http://www.w3.org/1999/xlink" x="0px" y="0px"
	 viewBox="0 0 512.001 512.001" style="enable-background:new 0 0 512.001 512.001;" xml:space="preserve">
<path style="fill:#51B3DA;" d="M476.231,465.475H171.849c-19.723,0-35.769-16.046-35.769-35.769v-50.132
	c0-9.864,7.997-17.86,17.86-17.86h254.252l0.048-161.248c0-9.864,7.997-17.86,17.86-17.86h50.132
	c19.723,0,35.769,16.046,35.769,35.769v211.331C512,449.429,495.954,465.475,476.231,465.475z"/>
<path style="fill:#80D0E1;" d="M408.191,397.435H103.809c-19.723,0-35.769-16.046-35.769-35.769v-50.132
	c0-9.864,7.997-17.86,17.86-17.86h254.252l0.046-161.248c0-9.864,7.997-17.86,17.86-17.86h50.133
	c19.723,0,35.769,16.046,35.769,35.769v211.332C443.96,381.391,427.915,397.435,408.191,397.435z"/>
<path style="fill:#C7E9F4;" d="M340.153,329.395H35.769C16.046,329.395,0,313.349,0,293.627V82.294
	c0-9.61,3.757-18.63,10.579-25.393c6.933-6.874,18.102-6.907,25.076-0.073L187.96,206.09L340.266,56.83
	c6.974-6.836,18.141-6.801,25.076,0.073c6.822,6.764,10.579,15.782,10.579,25.393v211.331
	C375.92,313.349,359.874,329.395,340.153,329.395z"/>
<path style="fill:#80D0E1;" d="M175.459,243.854L10.653,82.341c-7.116-6.974-7.144-18.428-0.076-25.437
	c6.748-6.692,15.695-10.378,25.192-10.378h304.384c9.497,0,18.443,3.686,25.19,10.378c7.075,7.017,7.033,18.471-0.075,25.437
	L200.461,243.854C193.516,250.659,182.404,250.662,175.459,243.854z"/>
<g>
</g>
<g>
</g>
<g>
</g>
<g>
</g>
<g>
</g>
<g>
</g>
<g>
</g>
<g>
</g>
<g>
</g>
<g>
</g>
<g>
</g>
<g>
</g>
<g>
</g>
<g>
</g>
<g>
</g>
</svg>
