<?xml version="1.0" encoding="iso-8859-1"?>
<!-- Generator: Adobe Illustrator 16.0.0, SVG Export Plug-In . SVG Version: 6.00 Build 0)  -->
<!DOCTYPE svg PUBLIC "-//W3C//DTD SVG 1.1//EN" "http://www.w3.org/Graphics/SVG/1.1/DTD/svg11.dtd">
<svg version="1.1" id="Capa_1" xmlns="http://www.w3.org/2000/svg" xmlns:xlink="http://www.w3.org/1999/xlink" x="0px" y="0px"
	 width="46.204px" height="46.203px" viewBox="0 0 46.204 46.203" style="enable-background:new 0 0 46.204 46.203;"
	 xml:space="preserve">
<g>
	<g>
		<path d="M11.955,14.497c-0.139-0.139-0.306-0.25-0.49-0.326c-0.008-0.003-0.016-0.004-0.022-0.007
			c-0.17-0.066-0.354-0.106-0.548-0.106c-0.192,0-0.377,0.04-0.547,0.106c-0.008,0.003-0.016,0.004-0.022,0.007
			c-0.186,0.076-0.353,0.188-0.49,0.326l-4.748,4.749c-0.586,0.586-0.586,1.535,0,2.121c0.293,0.293,0.677,0.439,1.062,0.439
			c0.384,0,0.768-0.146,1.061-0.439l2.188-2.188v8.122c0,0.828,0.672,1.5,1.5,1.5c0.827,0,1.5-0.672,1.5-1.5v-8.123l2.348,2.348
			c0.293,0.293,0.677,0.439,1.061,0.439c0.385,0,0.769-0.146,1.062-0.439c0.586-0.586,0.586-1.535,0-2.121L11.955,14.497z"/>
		<path d="M28.625,13.34c0.586-0.586,0.586-1.535,0-2.121l-4.908-4.908c-0.139-0.139-0.306-0.25-0.49-0.326
			c-0.008-0.003-0.016-0.004-0.022-0.007c-0.17-0.066-0.354-0.106-0.547-0.106c-0.193,0-0.377,0.04-0.547,0.106
			c-0.009,0.003-0.017,0.004-0.023,0.007c-0.185,0.076-0.352,0.188-0.49,0.326l-4.749,4.749c-0.586,0.586-0.586,1.535,0,2.121
			c0.293,0.293,0.678,0.439,1.062,0.439s0.768-0.146,1.061-0.439l2.188-2.188v16.309c0,0.828,0.672,1.5,1.5,1.5s1.5-0.672,1.5-1.5
			V10.993l2.348,2.348c0.293,0.293,0.677,0.439,1.062,0.439C27.951,13.78,28.332,13.633,28.625,13.34z"/>
		<path d="M36.205,0.439c-0.139-0.139-0.306-0.25-0.49-0.326c-0.008-0.003-0.016-0.004-0.022-0.007C35.522,0.04,35.337,0,35.144,0
			c-0.192,0-0.377,0.04-0.547,0.106c-0.008,0.003-0.016,0.004-0.022,0.007c-0.186,0.076-0.353,0.188-0.49,0.326l-4.749,4.749
			c-0.586,0.586-0.586,1.535,0,2.121c0.293,0.293,0.677,0.439,1.062,0.439c0.384,0,0.768-0.146,1.061-0.439l2.188-2.188v22.181
			c0,0.828,0.673,1.5,1.5,1.5c0.828,0,1.5-0.672,1.5-1.5V5.121l2.35,2.348c0.293,0.293,0.677,0.439,1.061,0.439
			c0.385,0,0.769-0.146,1.062-0.439c0.586-0.586,0.586-1.535,0-2.121L36.205,0.439z"/>
		<path d="M12.376,38.395c-1.652-0.627-2.375-0.988-2.375-1.805c0-0.665,0.608-1.234,1.862-1.234s2.165,0.36,2.679,0.607
			l0.646-2.337c-0.761-0.343-1.823-0.646-3.269-0.646c-3.021,0-4.845,1.67-4.845,3.855c0,1.861,1.388,3.039,3.516,3.779
			c1.538,0.552,2.146,1.008,2.146,1.806c0,0.836-0.703,1.388-2.033,1.388c-1.234,0-2.432-0.4-3.211-0.799l-0.588,2.395
			c0.722,0.397,2.166,0.779,3.628,0.779c3.515,0,5.167-1.824,5.167-3.972C15.701,40.408,14.637,39.23,12.376,38.395z"/>
		<polygon points="20.567,40.58 25.278,40.58 25.278,38.225 20.567,38.225 20.567,35.564 25.562,35.564 25.562,33.189 17.66,33.189 
			17.66,45.994 25.828,45.994 25.828,43.619 20.567,43.619 		"/>
		<path d="M33.448,32.98c-3.779,0-6.23,2.869-6.23,6.707c0,3.646,2.224,6.516,6.021,6.516c3.743,0,6.289-2.547,6.289-6.744
			C39.528,35.925,37.38,32.98,33.448,32.98z M33.39,43.904c-1.938,0-3.114-1.768-3.114-4.274c0-2.487,1.14-4.351,3.096-4.351
			c1.995,0,3.098,1.977,3.098,4.273C36.468,42.043,35.347,43.904,33.39,43.904z"/>
	</g>
</g>
<g>
</g>
<g>
</g>
<g>
</g>
<g>
</g>
<g>
</g>
<g>
</g>
<g>
</g>
<g>
</g>
<g>
</g>
<g>
</g>
<g>
</g>
<g>
</g>
<g>
</g>
<g>
</g>
<g>
</g>
</svg>
