<?xml version="1.0" encoding="iso-8859-1"?>
<!-- Generator: Adobe Illustrator 19.0.0, SVG Export Plug-In . SVG Version: 6.00 Build 0)  -->
<svg version="1.1" id="Layer_1" xmlns="http://www.w3.org/2000/svg" xmlns:xlink="http://www.w3.org/1999/xlink" x="0px" y="0px"
	 viewBox="0 0 512 512" style="enable-background:new 0 0 512 512;" xml:space="preserve">
<circle style="fill:#FFAD61;" cx="429.907" cy="97.423" r="71.894"/>
<circle style="fill:#FFE6B8;" cx="429.907" cy="97.423" r="29.598"/>
<circle style="fill:#D35B38;" cx="82.093" cy="256" r="71.894"/>
<circle style="fill:#FFE6B8;" cx="82.093" cy="256" r="29.598"/>
<circle style="fill:#BCC987;" cx="429.907" cy="414.577" r="71.894"/>
<circle style="fill:#FFE6B8;" cx="429.907" cy="414.577" r="29.598"/>
<g>
	<path style="fill:#4D3D36;" d="M295.609,346.079l-136.546-61.563c3.304-8.888,5.116-18.493,5.116-28.516
		c0-10.029-1.815-19.64-5.122-28.531l199.278-89.926c14.081,25.019,40.879,41.966,71.575,41.966
		c45.264,0,82.089-36.825,82.089-82.089s-36.824-82.089-82.088-82.089s-82.088,36.825-82.088,82.089
		c0,7.339,0.982,14.451,2.798,21.226l-201.03,90.717c-14.832-21.399-39.55-35.45-67.5-35.45C36.825,173.911,0,210.736,0,256
		s36.825,82.089,82.089,82.089c27.956,0,52.68-14.058,67.511-35.465l137.625,62.051c1.361,0.614,2.784,0.904,4.186,0.904
		c3.888,0,7.603-2.236,9.304-6.009C303.03,354.435,300.743,348.395,295.609,346.079z M368.22,97.419
		c0-34.016,27.675-61.691,61.69-61.691c34.017,0,61.692,27.675,61.692,61.691s-27.675,61.691-61.691,61.691
		c-22.433,0-42.103-12.04-52.901-29.995l20.163-9.099c7.189,10.384,19.18,17.204,32.738,17.204c21.948,0,39.801-17.855,39.801-39.8
		s-17.855-39.8-39.801-39.8c-21.947,0-39.8,17.855-39.8,39.8c0,1.125,0.058,2.236,0.15,3.337l-20.722,9.351
		C368.679,106.011,368.22,101.768,368.22,97.419z M410.508,97.419c0-10.699,8.704-19.402,19.402-19.402
		c10.699,0,19.403,8.704,19.403,19.402s-8.704,19.402-19.403,19.402C419.212,116.822,410.508,108.118,410.508,97.419z
		 M82.089,317.691c-34.016,0-61.691-27.675-61.691-61.691s27.675-61.691,61.691-61.691S143.78,221.984,143.78,256
		c0,7.037-1.2,13.795-3.381,20.102l-20.081-9.054c1.016-3.511,1.572-7.214,1.572-11.048c0-21.947-17.855-39.8-39.801-39.8
		s-39.8,17.855-39.8,39.8s17.855,39.8,39.8,39.8c10.712,0,20.442-4.261,27.604-11.168l20.897,9.422
		C119.286,308.431,101.754,317.691,82.089,317.691z M82.089,275.402c-10.699,0-19.402-8.704-19.402-19.402
		s8.704-19.402,19.402-19.402s19.403,8.703,19.403,19.402C101.492,266.699,92.788,275.402,82.089,275.402z"/>
	<path style="fill:#4D3D36;" d="M332.618,362.781l-5.288-2.386c-5.139-2.315-11.175-0.032-13.493,5.102
		c-2.316,5.134-0.033,11.175,5.102,13.491l5.288,2.386c1.363,0.614,2.786,0.905,4.189,0.905c3.887,0,7.6-2.234,9.303-6.007
		C340.037,371.138,337.753,365.097,332.618,362.781z"/>
	<path style="fill:#4D3D36;" d="M429.911,332.492c-45.264,0-82.088,36.825-82.088,82.089s36.824,82.089,82.088,82.089
		S512,459.845,512,414.581S475.175,332.492,429.911,332.492z M429.911,476.272c-34.016,0-61.69-27.675-61.69-61.691
		s27.674-61.691,61.69-61.691c34.017,0,61.691,27.674,61.691,61.691S463.927,476.272,429.911,476.272z"/>
	<path style="fill:#4D3D36;" d="M429.911,374.78c-21.947,0-39.8,17.855-39.8,39.8s17.855,39.8,39.8,39.8
		c21.948,0,39.801-17.855,39.801-39.8S451.857,374.78,429.911,374.78z M429.911,433.983c-10.698,0-19.402-8.704-19.402-19.402
		s8.704-19.402,19.402-19.402c10.699,0,19.403,8.704,19.403,19.402S440.61,433.983,429.911,433.983z"/>
</g>
<g>
</g>
<g>
</g>
<g>
</g>
<g>
</g>
<g>
</g>
<g>
</g>
<g>
</g>
<g>
</g>
<g>
</g>
<g>
</g>
<g>
</g>
<g>
</g>
<g>
</g>
<g>
</g>
<g>
</g>
</svg>
